<svg xmlns="http://www.w3.org/2000/svg" viewBox="0 0 256 256"><defs><style>.a{fill:#55acee;}</style></defs><path class="a" d="M256,48.61a105.24,105.24,0,0,1-30.17,8.27,52.68,52.68,0,0,0,23.1-29.06,105,105,0,0,1-33.35,12.74,52.57,52.57,0,0,0-89.5,47.91A149.12,149.12,0,0,1,17.82,33.59a52.58,52.58,0,0,0,16.26,70.12,52.2,52.2,0,0,1-23.79-6.57c0,.22,0,.44,0,.66a52.55,52.55,0,0,0,42.13,51.5,52.51,52.51,0,0,1-13.83,1.84,52,52,0,0,1-9.89-.94,52.59,52.59,0,0,0,49.07,36.48,105.43,105.43,0,0,1-65.23,22.48A108,108,0,0,1,0,208.43,148.66,148.66,0,0,0,80.51,232c96.61,0,149.43-80,149.43-149.43,0-2.28-.05-4.54-.15-6.8A106.67,106.67,0,0,0,256,48.61"/></svg>