<svg xmlns="http://www.w3.org/2000/svg" viewBox="0 0 300 300"><defs><style>.cls-1{fill:#cdcccc;}.cls-2{fill:#fff;}</style></defs><rect class="cls-1" width="300" height="300"/><path class="cls-2" d="M207.68,237.13a110.51,110.51,0,0,0-2-14.31c-2-9.69-5.35-13.22-20.21-14.51a176.9,176.9,0,0,1-.87-19.81c6.94-8.24,11.6-19,14.73-30.67,6.13-1.45,9-7.64,10.26-19.32,0.83-7.43.18-11.24-1.33-13.16,3.6-26.82,3.09-41.66-4.28-49.84C197.16,52.08,171,42,150,42S102.84,52.09,96,75.51c-7.37,8.18-7.88,23-4.28,49.83-1.52,1.93-2.17,5.74-1.33,13.16,1.31,11.68,4.13,17.87,10.26,19.32,3.13,11.65,7.79,22.44,14.73,30.67a175.72,175.72,0,0,1-.89,19.94c-13.65,1.39-16.85,5-18.78,14.37a110.1,110.1,0,0,0-1.91,13.62C69.49,247.83,6.5,275,0,284.18V300H300V284.18C293.63,275.18,233,248.89,207.68,237.13Z"/></svg>