<svg xmlns="http://www.w3.org/2000/svg" viewBox="0 0 60 200"><defs><style>.a{fill:#999;}</style></defs><path class="a" d="M32.11,86.77a6.4,6.4,0,0,0,1.71,4.6,5.79,5.79,0,0,0,4.39,1.78,5.55,5.55,0,0,0,4.25-1.78,7.11,7.11,0,0,0,0-9.18,5.61,5.61,0,0,0-4.31-1.78A5.75,5.75,0,0,0,33.8,82.2,6.42,6.42,0,0,0,32.11,86.77Z"/><path class="a" d="M28.34,86.77A6.79,6.79,0,0,0,26.64,82a5.76,5.76,0,0,0-4.43-1.85A6.14,6.14,0,0,0,17.6,82a6.6,6.6,0,0,0-1.77,4.82,6.72,6.72,0,0,0,1.72,4.84,6,6,0,0,0,4.55,1.82,5.9,5.9,0,0,0,4.51-1.86A6.81,6.81,0,0,0,28.34,86.77Z"/><path class="a" d="M60,0H0L4.73,106.22H55.27ZM23.34,32.91a36.68,36.68,0,0,0-6.55,2q-1.75.69-4.16,1.87a11.25,11.25,0,0,1-3,1.19,1.44,1.44,0,0,1-.92-.26A.82.82,0,0,1,8.37,37a3.08,3.08,0,0,1,.87-1.89,14.93,14.93,0,0,1,2.8-2.4,31.26,31.26,0,0,1,8.6-4.36,30.28,30.28,0,0,1,9.45-1.45,30.33,30.33,0,0,1,16.6,4.8,20.52,20.52,0,0,1,3.83,2.92A3.72,3.72,0,0,1,51.85,37a.82.82,0,0,1-.34.69,1.42,1.42,0,0,1-.87.26A7.79,7.79,0,0,1,48.22,37c-1.22-.6-2.22-1-3-1.37A41.9,41.9,0,0,0,37.47,33a33.53,33.53,0,0,0-7.34-.78A35.23,35.23,0,0,0,23.34,32.91Zm3.81,24.26q-1.89,1.09-6.34,1.09h-4a7.65,7.65,0,0,0-3.72.6A3.35,3.35,0,0,0,11.81,61c-.05.24-.1.58-.16,1q-.32,2.4-2.19,2.4A1.72,1.72,0,0,1,8,63.83a2.77,2.77,0,0,1-.51-1.78c0-3.07.75-5.24,2.25-6.49s4.32-1.88,8.46-1.88h3.15a8.11,8.11,0,0,0,4.43-.9c.87-.6,1.5-2.08,1.89-4.42a2.55,2.55,0,0,1,.65-1.53,2.21,2.21,0,0,1,1.54-.47,2.07,2.07,0,0,1,1.34.39A2.13,2.13,0,0,1,31.9,48c.05.28.14.67.27,1.18.62,3,2.67,4.53,6.13,4.53h3.19c4.12,0,6.94.63,8.46,1.91s2.28,3.38,2.28,6.49a2.56,2.56,0,0,1-.53,1.73,1.77,1.77,0,0,1-1.43.61c-1.23,0-2-.8-2.14-2.4-.06-.31-.09-.55-.11-.73a3.45,3.45,0,0,0-1.32-2.39,7.69,7.69,0,0,0-3.9-.67H38.86c-3,0-5.1-.36-6.34-1.09a6.11,6.11,0,0,1-2.66-3.82A6.3,6.3,0,0,1,27.15,57.17ZM14.89,94.81a11.63,11.63,0,0,1-2.78-8,11.44,11.44,0,0,1,2.81-8,9.4,9.4,0,0,1,7.28-3.09A8.29,8.29,0,0,1,27,77.14a9.24,9.24,0,0,1,3.26,4.17,9.83,9.83,0,0,1,3.25-4A8,8,0,0,1,38.16,76,8.68,8.68,0,0,1,45,79a12.51,12.51,0,0,1,0,15.47,8.34,8.34,0,0,1-6.54,3.08,8.57,8.57,0,0,1-4.85-1.31,9.35,9.35,0,0,1-3.27-4.06,9.07,9.07,0,0,1-3.23,4.23,8.55,8.55,0,0,1-5,1.47A9.26,9.26,0,0,1,14.89,94.81Z"/><path class="a" d="M31.25,137H29.16a1.22,1.22,0,0,1-.87-.41,1.31,1.31,0,0,1-.39-.93V114.13a1.11,1.11,0,0,1,.33-.86,1.31,1.31,0,0,1,.93-.31h2.09a1,1,0,0,1,.79.33,1.18,1.18,0,0,1,.3.84v21.55a1.49,1.49,0,0,1-.29,1A1,1,0,0,1,31.25,137Z"/><path class="a" d="M30.11,156.13A6.21,6.21,0,0,1,27.39,160q-1.89,1-6.33,1h-4a7.77,7.77,0,0,0-3.72.6A3.35,3.35,0,0,0,12,163.79c0,.23-.11.57-.16,1-.22,1.6-.95,2.4-2.2,2.4a1.73,1.73,0,0,1-1.42-.63,2.73,2.73,0,0,1-.51-1.77c0-3.08.75-5.24,2.25-6.5s4.32-1.88,8.47-1.88h3.1a8,8,0,0,0,4.43-.9c.87-.6,1.5-2.08,1.89-4.42a2.62,2.62,0,0,1,.66-1.53,2.2,2.2,0,0,1,1.54-.46,2.06,2.06,0,0,1,1.34.38,2.17,2.17,0,0,1,.69,1.23l.27,1.17q.94,4.53,6.13,4.53h3.22q6.2,0,8.46,1.91c1.52,1.27,2.28,3.45,2.28,6.52a2.56,2.56,0,0,1-.52,1.73,1.81,1.81,0,0,1-1.43.62c-1.24,0-2-.8-2.15-2.4a6.7,6.7,0,0,0-.1-.74,3.5,3.5,0,0,0-1.33-2.39A7.73,7.73,0,0,0,43,161H39.07q-4.47,0-6.35-1.09A6.08,6.08,0,0,1,30.11,156.13Z"/><path class="a" d="M30.22,193.81l9-19.95a5.35,5.35,0,0,1,1.11-1.77,1.75,1.75,0,0,1,1.24-.52,1.65,1.65,0,0,1,1.24.48,1.79,1.79,0,0,1,.45,1.29,3.61,3.61,0,0,1-.15.92,9.79,9.79,0,0,1-.49,1.27l-9.78,21.69a3.18,3.18,0,0,1-.16.32C32,199.18,31.17,200,30.27,200s-1.67-.8-2.41-2.4c-.05-.13-.1-.26-.16-.38l-9.93-21.69-.06-.11a6.08,6.08,0,0,1-.61-2.08,1.65,1.65,0,0,1,1.52-1.77h.25a1.75,1.75,0,0,1,1.24.52,5.35,5.35,0,0,1,1.11,1.77Z"/></svg>